#!OML:ASF H:\Terrain\Patient Classification 1\Animal1\Tuesday\Animal1.ASF
:FULLY-SPECIFIED
:DEGREES
3867
root 11.1307 16.0751 -25.9294 -351.469 0.0312445 1.92477
lowerback 16.8568 -1.3179 -0.899156
upperback 5.06638 -1.87988 -0.201137
thorax -4.01103 -0.921364 0.670288
lowerneck -13.0844 -0.331455 -5.49025
upperneck -5.91312 0.383107 8.85684
head 0.360675 0.416327 3.92625
rclavicle -1.25328e-014 7.43579e-015
rhumerus -25.2973 21.4783 -83.0862
rradius 77.3525
rwrist -2.16494
rhand -10.0253 22.0096
rfingers 7.12502
rthumb 15.9593 -7.35297
lclavicle -1.25328e-014 7.43579e-015
lhumerus -24.6091 -20.2057 89.0931
lradius 66.6373
lwrist -42.2916
lhand 7.25957 42.9239
lfingers 7.12502
lthumb 32.5227 70.0236
rfemur -26.0738 14.9065 13.5537
rtibia 29.3019
rfoot -2.98914 -29.2099
rtoes -2.89241
lfemur -20.3698 -10.1105 -15.713
ltibia 24.2025
lfoot -11.6047 14.6439
ltoes -15.575
3868
root 11.125 16.0875 -25.8878 -351.426 0.0428903 1.69125
lowerback 16.0735 -1.31354 -0.612506
upperback 4.76275 -1.82425 -0.172405
thorax -3.92429 -0.895194 0.512436
lowerneck -13.1488 -0.357341 -5.39632
upperneck -5.09424 0.288348 8.71513
head 0.649063 0.374901 3.85952
rclavicle -4.23815e-015 -8.69683e-017
rhumerus -25.9575 21.331 -83.2872
rradius 75.7619
rwrist -2.2899
rhand -10.2879 21.9872
rfingers 7.12502
rthumb 15.7064 -7.3954
lclavicle -4.23815e-015 -8.69683e-017
lhumerus -25.1557 -19.8765 89.0214
lradius 64.6815
lwrist -42.3739
lhand 6.55989 42.3948
lfingers 7.12502
lthumb 31.8567 69.6294
rfemur -25.706 15.7257 13.7233
rtibia 28.8493
rfoot -3.09113 -29.9687
rtoes -1.38801
lfemur -19.9051 -10.5884 -15.3788
ltibia 23.5375
lfoot -11.4149 15.0607
ltoes -15.1829
3869
root 11.122 16.1013 -25.8438 -351.537 0.112621 1.56698
lowerback 15.4887 -1.33775 -0.357515
upperback 4.46105 -1.81727 -0.186953
thorax -3.93839 -0.892355 0.341867
lowerneck -13.2539 -0.411063 -5.45693
upperneck -4.14912 0.172844 8.72932
head 0.990531 0.329887 3.8818
rclavicle -1.5982e-014 4.01607e-015
rhumerus -26.4941 21.2392 -83.5067
rradius 73.9526
rwrist -2.57277
rhand -10.591 22.1503
rfingers 7.12502
rthumb 15.4145 -7.25497
lclavicle -1.5982e-014 4.01607e-015
lhumerus -25.8266 -19.444 88.9562
lradius 62.783
lwrist -42.2119
lhand 5.28506 41.6262
lfingers 7.12502
lthumb 30.6418 69.0953
rfemur -25.0985 16.3249 13.8651
rtibia 28.3466
rfoot -3.01409 -30.5327
rtoes -0.628971
lfemur -19.2912 -11.1745 -15.2164
ltibia 22.9124
lfoot -11.2729 15.4796
ltoes -15.1361
3870
root 11.1214 16.1171 -25.7974 -351.785 0.184175 1.67124
lowerback 15.0401 -1.37171 -0.388049
upperback 4.21508 -1.86894 -0.227743
thorax -3.95664 -0.917722 0.31824
lowerneck -13.1794 -0.480559 -5.76037
upperneck -3.48498 0.0781732 8.97799
head 1.21073 0.295675 4.03359
rclavicle 1.61522e-014 -5.43998e-015
rhumerus -26.9283 21.1707 -83.632
rradius 72.09
rwrist -2.91542
rhand -10.1707 22.1766
rfingers 7.12502
rthumb 15.8193 -7.19709
lclavicle 1.61522e-014 -5.43998e-015
lhumerus -26.362 -18.8792 88.7794
lradius 60.8096
lwrist -42.0009
lhand 4.48685 40.8639
lfingers 7.12502
lthumb 29.8804 68.4727
rfemur -24.2766 16.697 13.8519
rtibia 27.8339
rfoot -2.71913 -30.9583
rtoes -1.39607
lfemur -18.4673 -11.9208 -15.3568
ltibia 22.3037
lfoot -11.2971 15.9827
ltoes -15.2549
3871
root 11.1181 16.131 -25.7524 -351.847 0.147395 1.72923
lowerback 14.3976 -1.3748 -0.418295
upperback 3.94515 -1.87971 -0.274834
thorax -3.89455 -0.923567 0.275581
lowerneck -13.0448 -0.550091 -5.86175
upperneck -2.92857 -0.0401273 9.01773
head 1.38371 0.240293 4.06727
rclavicle 2.12296e-015 -2.88238e-015
rhumerus -27.349 21.1072 -83.7735
rradius 70.2968
rwrist -3.2776
rhand -9.19058 22.2573
rfingers 7.12502
rthumb 16.763 -7.03907
lclavicle 2.12296e-015 -2.88238e-015
lhumerus -26.659 -18.3554 88.4823
lradius 58.7133
lwrist -41.7485
lhand 4.57882 40.6216
lfingers 7.12502
lthumb 29.9682 68.2147
rfemur -23.724 17.1804 13.8112
rtibia 27.344
rfoot -2.63712 -31.4401
rtoes -1.99408
lfemur -17.8043 -12.4981 -15.4141
ltibia 21.6178
lfoot -11.2841 16.4713
ltoes -15.4257
3872
root 11.1113 16.1418 -25.7131 -351.778 -0.0587139 1.81612
lowerback 13.7417 -1.29813 -0.581096
upperback 3.59346 -1.80296 -0.301322
thorax -3.90473 -0.885165 0.315433
lowerneck -13.0389 -0.597877 -5.80807
upperneck -2.19897 -0.152484 8.85279
head 1.63396 0.185952 4.00122
rclavicle -1.73014e-014 -1.02421e-015
rhumerus -27.7934 21.1143 -83.8782
rradius 68.4765
rwrist -3.77012
rhand -8.71356 22.4897
rfingers 7.12502
rthumb 17.2221 -6.76712
lclavicle -1.73014e-014 -1.02421e-015
lhumerus -27.0526 -17.8059 88.309
lradius 56.7002
lwrist -41.1975
lhand 4.71256 41.2281
lfingers 7.12502
lthumb 30.0958 68.798
rfemur -23.4416 17.9398 13.626
rtibia 26.8327
rfoot -2.82949 -31.9412
rtoes -1.25027
lfemur -17.3089 -12.8762 -15.4738
ltibia 20.9214
lfoot -11.1717 17.0323
ltoes -14.7852
3873
root 11.1067 16.1522 -25.6724 -351.85 -0.163571 1.7688
lowerback 13.3094 -1.29778 -0.624109
upperback 3.17833 -1.80682 -0.245419
thorax -4.10163 -0.885443 0.394369
lowerneck -13.0129 -0.55942 -5.72722
upperneck -1.20371 -0.161062 8.98055
head 1.75736 0.203192 3.64868
rclavicle 1.80459e-014 1.01877e-015
rhumerus -28.3336 21.2353 -83.9938
rradius 66.5703
rwrist -4.02477
rhand -9.62645 22.4165
rfingers 7.12502
rthumb 16.3433 -6.91482
lclavicle 1.80459e-014 1.01877e-015
lhumerus -27.6599 -16.86 88.176
lradius 54.6862
lwrist -40.8143
lhand 4.25031 41.4954
lfingers 7.12502
lthumb 29.6546 69.1447
rfemur -22.9384 18.9378 13.6177
rtibia 26.3039
rfoot -2.62332 -32.718
rtoes -0.809729
lfemur -16.6893 -13.3729 -15.4177
ltibia 20.3064
lfoot -11.1414 17.6034
ltoes -13.914
3874
root 11.1029 16.1623 -25.6265 -352.035 -0.146768 1.56012
lowerback 12.9203 -1.36262 -0.426208
upperback 2.78465 -1.86295 -0.163511
thorax -4.30468 -0.913523 0.373938
lowerneck -12.6835 -0.542486 -5.85287
upperneck -0.560787 -0.171529 8.96061
head 1.89814 0.197174 3.66262
rclavicle 1.89218e-014 1.87603e-015
rhumerus -28.9185 21.2466 -84.1669
rradius 64.6107
rwrist -3.94744
rhand -10.8718 22.3611
rfingers 7.12502
rthumb 15.144 -7.06476
lclavicle 1.89218e-014 1.87603e-015
lhumerus -28.1833 -15.6837 87.9431
lradius 52.5098
lwrist -40.8833
lhand 4.31605 41.4413
lfingers 7.12502
lthumb 29.7174 69.0794
rfemur -22.1971 19.9618 13.8762
rtibia 25.765
rfoot -2.27741 -33.6555
rtoes -0.798251
lfemur -15.9689 -14.0124 -15.2091
ltibia 19.7703
lfoot -11.2998 18.0675
ltoes -13.1181
3875
root 11.0983 16.17 -25.5836 -352.063 -0.12738 1.49837
lowerback 12.3256 -1.37522 -0.333705
upperback 2.46109 -1.86736 -0.15709
thorax -4.32002 -0.916883 0.318837
lowerneck -12.5487 -0.602429 -6.01633
upperneck 0.00658294 -0.269451 9.01483
head 2.0542 0.153011 3.70226
rclavicle -3.23025e-015 -2.31087e-015
rhumerus -29.2608 21.1046 -84.2882
rradius 62.4799
rwrist -4.10498
rhand -11.3091 22.7256
rfingers 7.12502
rthumb 14.7227 -6.73163
lclavicle -3.23025e-015 -2.31087e-015
lhumerus -28.5306 -14.8218 87.6821
lradius 50.4183
lwrist -40.3926
lhand 5.07828 42.1643
lfingers 7.12502
lthumb 30.4446 69.6701
rfemur -21.6563 20.793 13.9387
rtibia 25.2107
rfoot -2.50219 -34.4648
rtoes -0.00885187
lfemur -15.48 -14.7498 -15.1086
ltibia 19.2665
lfoot -11.3823 18.6384
ltoes -12.5953
3876
root 11.0952 16.1785 -25.5437 -351.941 -0.0592773 1.44769
lowerback 11.6041 -1.39478 -0.224873
upperback 2.14682 -1.87964 -0.154466
thorax -4.25464 -0.924985 0.248175
lowerneck -12.5458 -0.593718 -6.13692
upperneck 0.556126 -0.277375 9.11986
head 2.21942 0.158096 3.75629
rclavicle 3.89494e-015 6.95746e-016
rhumerus -29.4298 21.0583 -84.3565
rradius 60.3444
rwrist -4.4939
rhand -11.1462 22.82
rfingers 7.12502
rthumb 14.8797 -6.62567
lclavicle 3.89494e-015 6.95746e-016
lhumerus -28.6432 -14.1339 87.4169
lradius 48.1966
lwrist -39.0685
lhand 4.89383 42.5388
lfingers 7.12502
lthumb 30.2687 70.0771
rfemur -21.3487 21.6467 13.9036
rtibia 24.7234
rfoot -3.15487 -35.3521
rtoes 1.80186
lfemur -15.1695 -15.5369 -14.9658
ltibia 18.7035
lfoot -11.1717 19.3339
ltoes -12.9345
3877
root 11.0917 16.1877 -25.4976 -351.978 -0.0464797 1.42867
lowerback 10.941 -1.38489 -0.173296
upperback 1.92326 -1.8606 -0.152466
thorax -4.12328 -0.917253 0.204471
lowerneck -12.5461 -0.577601 -6.18319
upperneck 1.07427 -0.281261 9.14411
head 2.37482 0.162308 3.77358
rclavicle 2.47238e-014 4.96962e-016
rhumerus -29.5001 20.9067 -84.3434
rradius 58.2328
rwrist -4.87215
rhand -10.2413 22.2703
rfingers 7.12502
rthumb 15.7512 -7.10871
lclavicle 2.47238e-014 4.96962e-016
lhumerus -28.5406 -13.1102 87.0532
lradius 45.8289
lwrist -38.3191
lhand 4.61597 42.5574
lfingers 7.12502
lthumb 30.0036 70.1441
rfemur -20.8808 22.6131 13.9029
rtibia 24.3276
rfoot -3.62162 -36.2571
rtoes 2.87456
lfemur -14.592 -16.216 -14.9315
ltibia 18.0804
lfoot -11.0307 19.9061
ltoes -12.5022
